<mxfile host="app.diagrams.net" modified="2024-03-17T13:00:27.692Z" agent="Mozilla/5.0 (Windows NT 10.0; Win64; x64) AppleWebKit/537.36 (KHTML, like Gecko) Chrome/122.0.0.0 Safari/537.36" etag="ZzBIWslyBWKYQGj_pdwg" version="24.0.7" type="github">
  <diagram name="第 1 页" id="jsM1tZc27w_mGMOPx0bK">
    <mxGraphModel dx="1647" dy="839" grid="1" gridSize="10" guides="1" tooltips="1" connect="1" arrows="1" fold="1" page="1" pageScale="1" pageWidth="827" pageHeight="1169" math="0" shadow="0">
      <root>
        <mxCell id="0" />
        <mxCell id="1" parent="0" />
        <mxCell id="Dyfe-6KV-RoQIKAsCmXW-1" value="" style="shape=image;verticalLabelPosition=bottom;labelBackgroundColor=default;verticalAlign=top;aspect=fixed;imageAspect=0;image=data:image/jpeg,iVBORw0KGgoAAAANSUhEUgAAAbsAAAGlCAYAAABjtVj1AAAAAXNSR0IArs4c6QAAAARnQU1BAACxjwv8YQUAAAAJcEhZcwAADsMAAA7DAcdvqGQAACscSURBVHhe7d1Jl2Rl2a/x+AIuh+87PPoFGBfLieusM9GhQyfv4FSewTmzs1wqKirYLRWqKBUbpJOeamgzq6MTCoSik66UKkrFBgqhQEUES2G/+d8Zd+QdT967iS53xBPXs9aPyNh7R2RmRPBctWNHRPbOO++84i9/+QsAAFk6evRoQewAAFkjdgCA7BE7AED2iB0AIHtHjhwhdgCAvBE7AED2iB0AIHvEDgCQPWIHAMgesQMAZI/YAQCyR+wAANkjdgCA7BE7AED2iB0AIHvEDgCQvTJ2F1xwQbgSAIAclLHTf6KVAADkgNgBALJH7AAA2SN2AIDsETsAQPaIHQAge8QOAJA9YgcAyB6xAwBkj9gBALJH7AAA2SN2AIDsETsAQPaIHQAge8QOAJA9YgcAyB6xAwBkj9gBALJH7AAA2SN2AIDsETsAQPaIHQAge8QOAJA9YgcAyB6xAwBkj9gBALJXxu7QoUPhSgAAcqDOETsAQNaIHQAge8QOAJA9YgcAyB6xAwBkj9gBALJH7AAA2SN2AIDsETsAQPaIHQAge8QOWer1eo2iy9Sdj7TZxrS9/rrrrLuMZ8v8evvaztfx2wI5IHZYCm0m8GibpstVXabNddl20fb+fJuvPVuenrY16vbAIiB2yI4m67b8Zdpc1rb3l0kv57fx60c57/l10ddV69usq+K3A3JA7JAdm6z9xF23LP26regyTcv0tZ1PT9Nt/Poq/jL+tGl5nVG2BRYFscNSqJvAtc6vt/Opusv45dGyUbYfl11X+v3S7+HXN/GXAxYZsUOW0gnbn/rlfnt/vo6/rqp1karv2bRcp1XSy1SZdD2w6IgdsmcTed2E7tfp64jf3rar217Sbf32dj5dlp56dct0WsVvl37d5jyw6IgdsqUJ2yZtfxpN5NGyJm2vx75nui5aZsvT0yrR5VJNy+26/Hm/HZADYofspBN3Kt3GzvuvI7beb9dmWZOm67Gvq06Nzlfx23m2Lj0FckPssDTaTPrp19NYZrTO1vuvq/ht6069dFm0jfHrqr4GckHskDVN3CZab9LJPuK3t+3aLouWV61Ll9nXVaepNuvTddH5qssDi4jYYWnUTeB+ebRN0zJ9nfLbNqnbPlrnv4d93UZ6Pf7y0TogF8QOAJA9YgcAyB6xAwBkj9gBALJH7AAA2SN2AIDsETsAQPaIHQAge8QOAJA9YgcAyB6xAwBkj9gBALJH7AAA2SN2AIDsETsAQPaIHQAge8QOAJA9YgcAyB6xAwBkj9gBALJH7AAA2SN2AIDsETsAQPaIHQAge8QOAJA9YgcAyB6xAwBkj9gBALJH7AAA2SN2AIDsETsAQPaIHQAge8QOAJA9YgcAyB6xAwBkj9gBALJH7AAA2SN2AIDsETsAQPaIHQAge8QOAJA9YgcAyB6xAwBkj9gBALJH7AAA2SN2AIDsETsAQPaIHQAge2XsDh48GK4EACAH6hyxAwBkjdgBALJH7AAA2SN2AIDsETsAQPaIHQAge8QOAJA9YgcAyB6xAwBkj9gBALJH7AAA2SN2AIDsETsAQPaIHQAge8QOAJA9YgcAyB6xAwBkj9gBALJH7AAA2SN2AIDsETsAQPaIHQAge8QOAJA9YgcAyB6xAwBkj9gBALJH7AAA2SN2AIDsETsAQPaIHSby1ltvFW+88QaABq+88kpx5syZ8P8jzB6xw0TOnj1bnDt3rvjggw8A1Hj77bfL4EX/H2H2iN2C6/V64fLIKNu2pX+x6n9kBoNRP959911i1yFi1zEFqEl0Oa/NNtJ2u1EQOwaj3SB23SJ2HUsD1HTeljUZ5TLptqMgdgxGu0HsukXsOpbGpul81TKvzXWYputqQuwYjHaD2HWL2HVMsWkSXSZd5vn19vUo16PlVetSI8Xu1O7i/PN3F6f6Z2cytuN7MBhjDGLXLWLXsTQqTeerlnlV6225Tuuuo2m9x54dg9FuELtuEbuOpVFpOm/LmqSX8ZeL1o1ra+xOFbvPX/8+K2v980WxttI/39/rWtt9/tDPev5utx+mbQbrzi8Gq8rlK8Vud1ldZXndflvbs+uf7k7XD8ZasdK/nng9gzHdQey6Rew6tjnZVosuky7z0vX+uqr47UcR79lthKTsXT9SZfosRPraRrneQrMRykEn11aKnm1fbufCqHX2Pey8i1x5Gq0vz2x8n83I6ucldozZDmLXrTJ2a2tr4UrMXhqapvNVyyLazratu0y6zl+uSeXTmGVcVooVH68odmV4kr2yjRXrw0UoXVd1Pj3trx7aXl9bgMtB7BizH8SuW8SuY1FoRjnfVt3lou/R9vvUHbMbPH1pwwXn1NBTmf3QDO19abg9vbp4adj59LS/emj7Ld+H2DFmP4hdt4hdx6LQjHK+rY2oVIsu00btnt3K7uGnJS04WjfYs0r27Kr2uOripWHn09P+6qHt03XEjrENg9h1i9h1qC4yUYgmiVLT94qWt1F9zM7trSXH7MoXqFgBtWwQmoZjdlXx0rDz6Wl/9fD2+vmSCBM7xowHsesWscNEtsZuI1hbXo05FKCN2JQxL4/rudCU4emv83t5tfFaH3Y+Pe2v3rJ9GWH7Gc5P9igZjOkPYtctYoeJ1B2zW5iRhpDBmMEgdt0idpjIosZu8/15yR4kgzGjQey6RewwkSz27BiMbRjErlvEDhMhdgxGu0HsukXsMBFix2C0G8SuW8QOEyF2DEa7Qey6pc4RO4yN2DEY7Qax6xaxw0SIHYPRbhC7bhE7TESxO336dBk8ANX0/8mrr74a/n+E2SN2mMibb75Z7Nmzp7j44osB1ND/J/r/Jfr/CLNH7AAA2SN2AIDsETsAQPaIHQAge8QOAJA9YgcAyB6xAwBkj9gBALJH7AAA2SN2AIDsETsAQPaIHQAge8QOAJA9YgcAyB6xAwBkr4zd6upquBIAgByoc8QOAJA1YgcAyB6xAwBkj9gBALJH7AAA2SN2AIDsETsAQPaIHQAge8QOAJA9YgcAyB6xAwBkj9gBALJH7AAA2SN2AIDsETsAQPaIHQAge8QOAJA9YgcAyB6xAwBkj9gBALJH7AAA2SN2AIDsETtM5K233ireeOMNAA1eeeWV4syZM+H/R5g9YoeJnD17tjh37lzxwQcfAKjx9ttvl8GL/j/C7BE7TET/YtX/yAwGo368++67xK5DxA4TIXYMRrtB7LpF7DARYsdgtBvErlvEDhMhdgxGu0HsukXsMBFix2C0G8SuW8QOEyF2DEa7Qey6RewwEWLHYLQbxK5bxG7O9Hq9cHlE20aibWelOnanit3n2890frH7VH9xORZlHYMxvUHsukXsOrQxwbYTbZ9en20TLZ+VqtitrQz/rL3eSrG2YOsYjGkOYtctYtchTa5156uW+/Ntr2NW4titFSvrP4d+Fm+lrMiirGMwpjuIXbeI3ZzRZOtPI35dul3d5WaBPTsGo90gdt0idh3TBOtP674e57wti5ZPA8fsGIx2g9h1i9h1TJNsdFq3zKTnPdveb+OXTUt17BgMhh/ErlvErkNVUfL8dtGySN26aSN2DEa7Qey6RezmgI9YE2LHYCzmIHbdKmN39913hyux/ZpC5WMX8dv4y6TLpoXYMRjtBrHrljpH7DoUhanpvPHLvarL+GXTQuwYjHaD2HWL2HUsClOb83Xxqls3bcSOwWg3iF23iF3HFKYm0eUio24/DcSOwWg3iF23iB0mQuwYjHaD2HWL2GEixI7BaDeIXbeIHSai2J0+fboMHrBI3n///W310ksvlbF76623MCPRHGWIHSby5ptvFnv27CkuvvhiYG5ddNFFnbvsssuKs2fPhpM0pi+dq4gdgKxEEx9w1113ETsAiy2a3ACP2AFYaNHEBqSIHYC5F01ei0DHtLEhun22E7EDMLeiSWsS0SSMPET3t0fsAMylaMIaRTQhYrn4xwOxAzB3/CQ1imjCm0d6C0LOot+5S3psEDsAcyeNWJNogpumaELH7ET3waTK2N16663hAw4AtlMUsirRhBaJJtNFpU8s6kr088yb6P43ZewuueSS8IEHANshilmVaCJLRRPhJKLJH7MT3Qfj8I8JnsYE0JkoZlX8xBWJJjsvmlTnyeuvv77Qot9pO0X3uUfsAHQiClqVKG4mmthMNCmOI5rcMTvRfTCK6LFw5513EjsA2ysKWiSKmxdNahJNgBJNrNvlz3/+89KJbodZiO5r8Y8JYgdgW0VRi0RxM34SM9FkF02MTaJJ+7XXXttWZ86cmVvRzztL/n6I7q9I9FggdgC2VRS2VBQ4aRM5PzmaaBIdRTTpY3ai+6CN6L63AN5xxx3EDsD2iMKWGidymszSSS6aDKOJFYsvuq/Tx8Ptt99O7ABsjyhuXpvQ+chJOqmlk140Oc7Cq6++ipai229a0vvfHhfEDsC2iOLmVYXOh82ekjJVkYsmwbaiyXlUr7zyChLR7dRGdB+14R8PQuwAbIsocCYKnY9cGrpxIhdNpJFooh7Vn/70JySi26mN6D6KRPe50WPjtttuI3YAZieKm5dGrm5vzkfOhy6a4MRPhtFEGokm6jb++Mc/zsQf/vCHmYu+77RFt1kb0X0U8fd19FggdgBmJoqbl0aubegsclWhiwIXTaSRaKKu8vvf/35qXn755bkW/czjioLr+ds4uo8iTdE7cOAAHwQNYPqiuHk+cOOEzk9kpilyfhKNJlmJJucqURRG9bvf/W6hRL/DqKLbskp0H6V8FP1976NXxu4Tn/hE+GAFgHFFgZN0T24aobNJzULnw+YnxWgyTUWTsxcFYFS//e1vsxP9nm1Et7EX3Ucpfx/b/Z4Gr4wdT2MCmKYoctImdD52o4SuKnJ+UowmU4km4SrRRF/lN7/5zcROnz49c9H3nUR0W7QR3d5edN+Jv4/T6Nne3v79+4kdgOkaJXRp7EYNXVPkbEKMJk8TTbxeNKGnooh4L730UujUqVMLJfod2ohusyrRfSDRfWfS8KXR27dvH7EDMF1VoWvaq2sbOtubU+TS0FVFLp04o0k2FU3aXhSDKidPnpyqF198cSLRdU4i+p2rRLelF/1jQfx9k96fddHTY2Pv3r3EDsB0VYWuLnYWOh+7NHS2J2d7cxY6+1d8VeQ0OaYTZzTJSjQ5e9FEn4ri0uTXv/71XIt+5ibRbZOKbmMvuo8kvT8tgj56Pnh6ISaxAzBVo4Yu2qubJHQWOB+5dLKMJlaJJuRoIpcoClV+9atfbasTJ06Eom3HFf2eVaLbLxXd9tF9JOn9GUXPHg96bBA7AFMXha4udtFenUXOQmexS0Nn/3q3yGlifeyxx4oHHnigWFtbK/9CtdGfeRmFPmJqEnoj8zKKbotR6C8UmOh+Sfn7+NChQ+V9f/z48fKxoMeEHhu33HILsQMwXVHoJApdtFc3aujs6connniiOHjwYHHi2aeKP/72ZPG31/9U/PNvf8bMveZE66frvdLrob++8afiD+v3/QvPPl0+FvSY0GPj5ptvJnYApieKnPjQ+djVhc5iVxU6/YvdQnfs2LHisV88XLx15vfhBIlZ8aGbbvAUtarlw+LwvfnaH8rHhPb0brrpJmIHYDqiyJkodGnsoldd+uN0Cp1/2tLv0T36yLFwYsQ0pTHzgfP8ZcbXPnYmjp4eG1deeWXR0/Oc0QMXANqqOk5notg1hc7v1aUvRLHQ6YUSerqKPbpZqgpatFzSy09XHDqJY6c9vMsvv5zYAZhM1asvTRQ6i52FLopd01OXetXdo48+Wh6jiyZFTCKKWFvR9XmjbDssjpwXB+/Yz+8jdgDG1xQ6iWLXFDr/1KUPncXO3lZw//33ly9G+ef6hLYpnijzNX48tvLX1aRq+/Q6zSjbDovDVmVr7F584ZfEDsB4LHRt9+osdha6qtj50PnY+T06e+/c6upq/1WXyxq78QOyIbr8dot+rmFx1OoMx+7smZeJHYDR+dC1jZ2FLo2d36OL9urSpy4tdHpzsd5nFU2Oy2X0eGy9TJein29YHLQ6w7ETYgdgJGno2sSuKnRp7NK9uug4nWKn0OkTNoidiSKyaKLfa0MctDrEDsAEotBJU+iaYhft1UWhsz06hU4fMaVP2Ygmx8XSbsJvx1/XItr8XT7ykY8WR1ZvK7+OgnZ4fd1HP/rRcB2xAzCRKHQy77H7xkUXFr1ebwst/z//+7/Cdfcdviu8LvPRj/yPwbb/639+vFymy9jXum5t4y8Tiyf70fnrWWQbv49C95//+R/laRozhe4/1tfpNF23idgBGEMUOYlCJ21i55/CtNjZsTofu/RYnWKnzz7UZykOT/jtKEppiHyomihw113148F5fa3Lj3Idm7ZO9PLrZx9viKW/XE42f0cLno9au9AJsQMwhih0EoVO5jl2iojC5Je1DZX2BH3ovPFiF4tjF8UhR5u/s4JncWsfOiF2AMYQhU6i0Mm8xk5PL0q6vG2otFcXLRd/HQqiwmjr/NOlttyC5p9mve/wnevLjw/Oyzcu+tL69lEUcrZxuylcFrn2oRNiB2BEUeRMFDqJQudjZ6Gz2PnQWezseJ0PnY7VKXTjxK7uqcG2sat7arEqdmlgtVzb6ufZiNnGOl1m4/KvlcHb+F5RCJbHe+uIHYBtEUXORKGTeYydQqLIROvaxk5xipZLVey0zO+pWeDSoPnzxG7D+E9jGmIHoKUociYKncxb7NKnFVNtY6dtdF3Rujh2r5XL9PRkOpETu3rRKzLHDR6xA9AoipyJQicWOh87Rc4fq7PQif/UFB86O15nx+osdvqLB/rL2GlwqtTtkUnb2Gk7XZdObZnCpvOb1/HaUOx0zM2We3Wxk42fefgyy8KHTud9vEYPHrED0EIUOROFTuYpdgqNPX3o+eNobWMndqzN2B5jVewk/RkUtqbY2WXm8wUqZxLRNuN5769nyjeMW+jKZaXNgCl0euO5X1aH2AFoFEXORKGTeYrdbG2drPOXhm66sRMFb+h8KQ5ZG8QOQKMochJFTnzo2sROx+t87KJPTvGh247Yaa/M74nJxrG64Uk5Fl9nvO0iSMNWJbrsdBA7ADMXhU6i0Mnixy6ecNuLrtNE28/SJDHyl51UdP3tbISO2AGYsSh0EoVOiF10nRJtO2vjBsdfblqi71NvM3STBY/YAagVRc5EoZOq2Cl0aewsdBY7Ha/zn5xibzlQ7HzoTpw4URw4cGB9QoyiMg3x5LuYRomNj9OsRN93q62hi8RxSxE7ALWiyJkodJJH7Ew8EecpCtN22frzxHFrQuwAjCGKnIlCJ8Ru2uIYTF8aoC5s/jxxzEZB7AC0FEXORKHzn5ziY2fH63zs0uN1aeiqPjlFsXvhhReK/fv3r0+KUaCmycegK1tDMJmq67PlXdv4eeKAjYrYAWghipzJN3ZpBBZFFI42Jr389MXhGgexA9BCFDmTV+x8NBZNHIz2pnU9k3tvSBSvcRA7AA2iyJn5iJ1N1FHAPNsuB3EoJjOr6x3NcOymFzxiB6BWFDkzSewUOh87+5gwxc5/TJhil744RaF7/vnny9gxGG0GsQNQK4qcIXaMRRnEDkCtKHKG2DEWZfTuvPPO8AEOAFHgvCh0aewUubrjdaLjdRY7Ha/zHxOWHq/T++sUu+eee67Yt29ffypjMOoHsQNQKQqcR+wYizKIHYBKUeA8YsdYlEHsAFSKAudFofOxs2N1dbFT6Cx29rYDxU7H6xQ6Ha+z2Pnjdc8++yyxY7QexA5ApShwHrFjLMogdgAqRYHziB1jUQaxAxCK4paKQlcXOwudxc4+OUXsbQeKnb3lII2dHa9T6J555pli7969/amMwagfxA5YQAqJJn9N+r/85S9n4umnn2701FNPhZ588snSE088UTz++OOl48ePF4899tjAo48+WjzyyCPFww8/XDp27Fjx0EMPFQ8++GDxwAMPFPfff39x3333Fffee29xzz33FEePHi0OHz5cHDp0qFhbWytWV1eLK664oj+VMRj1g9gBC0ahU+S0Z/Svf/2reP/992fi3//+dyN9fzl37tyQf/7zn6X33nuvePfdd0v/+Mc/infeeaf4+9//Xnr77beLv/71r4Pfy/YQ9fvZXqA91WlvOk/3/DR/MRhtBrHL3HbsASwDPZWm2zK6jbebfhY9LRgFapqiuKWi0FnsFDofO4XOx+5vf/vbIHb+6VD/lKdCJ/a2BMXOPllFT3Hecccd/amMwagfxC5j27UHkDvddpp8dVvOQ/AUXwUl+lmnKYpbitgxFmUQu4xt1x7AstCkq73k6LbeTopd9PNNWxS3FLFjLMogdhnbrj2AZaHbUnt30W29nbYjdlHYIj5wnoWuKnY6Xmexs1d1KnT+A6PT43WKnf9kFf1jjtgx2g5il7Ht2gNYJrpNo9t6O81b7Hq9HrFjzP0gdhkjdtO37LFT2Px5i1saPB87rfMUu3QZsWPMehC7jHUdu3RCs2V+vX1t5+v4bbuy7LET3Rf2tQ+cl8bO9uz0tcXO9uz0NbFjzHoQu4x1HTtPE1p02tao288Ksduk+6RKGjt7j52+1lOYOlXs9Pvoa8VOr3S12Pn32PlPV/EfI6ZPVbn99tv7UxmDUT+IXca6jJ0msOjrNuuq+O26QuyG2Z6c7p9or47YMeZlELuMdRk70STmT5uW1xll21la9tjpfvDniR1jUQaxy1jXsRNNZHZq/HK/XVv+ctttGWLnYxbRfaBT/x47LYti5++3Jha7qvfY6WPC7D12Ol5H7BijDGKXsa5jpwksWm4mXd8FYrfJIhVJgxft2dkbyvW1XpxC7BizHMQuY13GThOYnVbx26VftznfBWK3qc2eHbFjzMsgdhnrMnZGE9k4y3Vq/PKuEbv6pzH9x4SJ3nKgdW1jl77tQMfr0rcd6HidYqc/5ErsGG0HscvYvMSuSrS92Lr0dB4se+x0X9jXxI6xSIPYZWweYieazOrOe35d1dddWvbYGd0fTRQ7nSp04tf5N5QLsWPMehC7jM1L7EQTmj9N2aSXLkvPV11+uxC7TdFfPIj27Cx2+uQU+1xMhc727NJPT7G3HeiTUyx20fG6EydOFLfddlt/KmMw6gexy1iXsbMwtVF3+Whdl+YhdvrLCwpL9PNNQxS2CLFjLNIgdhmbpz27XMxD7PQ39fQUX/TzTUMUtgixYyzSIHYZm/UewLLRbTkPsdOxLd23OrY1i/s3CltKoUtjp9D52Cl0UezseJ3Yn/extx1EsYuO1yn4Y8dubWXomYVeb6VYW1+2Y9ep9ZWnil07esXK2samQ9vu2LW+1sZasTJ0vmro+tavX9v3dhTlt6gcba+TMc4gdhmb9R7AslFcNNFGt/V2UxyefPLJ4ujRo8WRI0em6vDhw60dOnRo4ODBg6W1tfWp3VldXS3dddddJc05+msFoheYKFgHDhwo9u/fX+zbt6/Yu3dvceuttxY333xz6cYbbyyuv/764rrrriuuvfba4pprrimuvvrq4qqrriouueSS/lQ25lDMyrJtRK7XD9LaSj94FsFTu4od6wu0fDiUfYM6psNip7EZsy3Xs/HNamKn62mKJaNuELuMzXoPYFnottM/GnRb6jaNbuucaG+rifbG7OlHo9vG9tBsL030+BPtsYluS+21ib3SUk9T2t6b/nyPffal/sGmV10+//zzxXPPPVfuWT/99NNl6B9//PEyhqOOU7t2bOylKWA+LuX5lfXg9Pp7eeujH7u1lTQ0cZgqY+gNLpdeB7Gb5SB2mZvlHsCyuPfee4snnnhiKUInUdxSTbGz0FnsLHT2lgJ/PM7HTsfk7G/VpbHTPzYUu6eeeqq8PxS7m266qT+VjTYGwfNPU65bWdF52xNbH4rd+jLt1Q2PqtilQfJ7dunYvI6qSG5+W2I36SB2AIZEcUstcuz0dOVgzy0c6xFSbPox3LFrbSNY2vNLYjRQES3FajOAul4fvjSYw+fTcG4NKWOUQewADInillr0PbuN8AyHaVOyZ6fC2OlgpKHaGD5ICp9ip71IO629jv5xQRvEbrqD2AEYEsUtlUXsglhtedoxiZ2Fy19+c9nwZS125WX1VOiW77cZ3CioxG66g9gBGBLFLZXGzkIXxc5CJwqdxU6hE/1RVsXO3kfn314gL7zwQvniFMVOL05R7BS648ePb8uenS23vbPq2PmA+mNs+l7u6/VtdvWf7tyMm99Gg2N00x7EDsCQKG6pxY/d+iiPwbmgpOc1kr0thW0zipsGe3Dr2w6O2yl87jhfeT3JU5UbQ6FLjyMme5jhNoxRBrEDMCSKW2qRY1f1ysctFKskdtGwPbu1FR+n9TEUT8Vr43qHrq8fQ+vf0M+m77+xmDGFQewADInilqqLnQ+dP17nY2fH69LYRe+xs9g988wzQ++xm3jPjrFUg9gBGBLFLUXsGIs2iB2AIVHcUsSOsWiD2AEYEsXNs9BZ7Hzo0tj50FW97UCxa/qoMB2vU+z82w4ee+wxYsdoPYgdgCFR4Dxix1jEQewADIkC5xE7xiIOYgdgSBQ4b1qxU+iqPj1FoRP9zTr/6Sk6XqfY6Xjdo48+SuwYrQexAzAkCpxH7BiLOIgdgCFR4Dxix1jEQewADERx83zootj5T09J33ag2Cl04o/X2dsO0k9P0fE6xc7eduBjp+N1ip3+ijmD0WYQOwADUeA8YsdY1EHsAAxEgfOIHWNRB7EDMBAFzktj50M3TuwUOotd9LaD9NNTFDofuxtuuKE/lTEY9aN3xx13hA96AMsnCpxH7BiLOogdgIEocB6xYyzqIHYASlHcvDR0aewUOoudQudjp9Cln55ix+uqPj1Fx+sUO3vbgf/0FIXuF7/4BbFjtB7EDkApCpxH7BiLPIgdgFIUOI/YMRZ5EDsApShwHrFjLPIgdgBKUeC8NHTRe+yqYidR7BQ6sY8KU+wUOoudPirM3mNnsbOPCiN2jFEGsQNQigLnETvGIg9iB6AUBc4jdoxFHsQOQBg3Lw1dXewsdD52dsxOoRP/UWEWO4XOYmfvsbPY6T126V88eOSRR4rrr7++P5UxGPWD2AEIA+cRO8aiD2IHIAycR+wYiz6IHYAwcF5T7Cx0o8ROoRO97cBi5//igWLnPypMsdPbDvRRYTpeR+wYowxiByAMnEfsGIs+iB2AMHAesWMs+iB2AMLAeePEzkKXxk5vO0hjZ287sNjZp6dY7PzbDuwvHjz88MPEjtF6EDsAYeA8YsdY9EHsAISB84gdY9EHsQMQBs6LQtc2dgqd+E9PsdjpbQc+dv5DoPW2A30IdBo7hU7H7I4dO1bGLvp9gBSxAxAGziN2WHTEDkAYOI/YYdEROwBh4Lxpx06fnmIfBK23HdTFTh8CnX56CrHDqIgdgDBwHrHDoiN2AMLAecQOi47YAQgD5xE7LDpiByAMnFcXOx+66A+3VsXOXqBiHxUWxU4vTon+cKs+KozYYRTEDkAYOI/YYdEROwBh4Dxih0VH7ACEgfNGiZ1Y6Cx2+qiwKHZ6j53Fzj4qLI1d+hcPiB3GQewAhIHziB0WHbEDEAbOI3ZYdMQOQBg4k4Zu0tjpo8Ls48Ki2Pk/3Kq3HljsdMzO/8WDhx56qLjuuuvC36cLz758tvjY5aeKD3/lRNH73PMY0yevPF3eltFtPAliByCMnCF2zTQ5K3JfPvpacfadfxXvv/8+xqDb7tKHXi8+/OUTUw8esQMQRs4Qu2afvOp0seuhN8oJ+0Mf+hCnE55eeORMuZcc3dbjInYAwsiZacVOobPY+WN2+vQUhS6KnR2zU+h0zE6h06enWOzm5Zidnn7TXolN2JjM2XfOlXt30W09LmIHIIycIXbNFLto0sbo7B8Muk2j23pcxA5AGDlD7JpZ7Nizmx5iB2DqosiZeYqdjtn52M3LMTv27KaHPTsAMxNFzhC7ZuzZTR+xAzB1UeQMsWs2l3t2J3cVO3auxuu81Z1Fb8eu4mS0rgPs2QGYmShypip0EoXOfwi0KHQWO316isVOHwJtsUvfeqBPT9HbDix26SeosGc3bHVnr+j1zM5i9f2Txa4dflmv2LHr5Mb2iqBbXmXn6tbvs52IHYCpiyJniF2z+dizWy129vfkTu7aWew62V+uuPk9txZ7fCd37egsduzZAZiZKHKG2DXres+utLpzI1Drpzt27Aj31gZ7dwuA2AGYuihyhtg1637Pzj1tqb04HYcr9960XE9rrm+jCK7HTnttaQQjXYWRPTsAMxEFzptl7PRRYXUfF+b/cKtil77Pjj27PsWtPFa3Wuy02I0QsNWdOzaf9pwTxA7AVEWB84hds2737Nb33nbuXI9cEruKPbvBZWz5uuEXuKzr8NWZ7NkBmIkocB6xa9b5nt0gXhuxW614qnIQu+RFKkuxZ7dnz55wBYDlEAXOm3bsFDofu+iYnX+fnY8d77Orotj1o7YevZ3rX2+8mjLas9vYtnwRS38Pbp5iN7M9u8985jPhCgDLIQqcR+yazc+e3frXQ3ttG8t39p+mVAD1lOVgD6/i2F6p4e0Jszb12H3qU58KVwBYDlHgPGLXrPs9u3zMbM/uvPPOC1cAWA5R4EwaulFjZx8Vpj/cKnbMTh8Vptj5jwt78cUXy9idOHGifOuBxc4+Luz48eODY3bHjh1jzy5zxA7AVEWRM8SuHfbspmdme3af/vSnwxUAlkMUOUPs2mHPbvqmHjteoAIstyhypm3sLHRR7ESh8289aBM7fYLKorz14MNfOVGcfedf4aSN0egfDGffOTf92P34xz8OVwBYDlHkDLFr52OXnyouPPLaYM+O08lOL33w9eKTV54Ob+tx8aZyYMlFkTPErp1nX36j3Lu79KHX2cObgG67C4+cKW9L3abRbT0uYgcsuShypil29sdbpxE7Ueya3nqg4M1b7EST8ycv/2XR+3/3F73/ex/G8OH///PiY7uennrohNgBSy6KnCF2yAWxA5ZcFDlD7JCL3k033RSuALAcosiZWceuzSeo+L9nN6/H7DD/eh//+MfDFQCWQxQ5Q+yQi953vvOdcAWA5RBFzjSFLo2dQlcXO4Vu1NjVPY15/fXXh78TkOKYHbDkosiZNrGTutjZJ6j42KUfBK3QNX2Cio/dI488Un6KCrFDW8QOWHJR5My0Yif2NGb0Vw987OqexrSPDFPstGd3ww03lN8n+r0Ao8cesQOWXBQ5M+vYRW8qbxs77dnt27evvFz0ewFGT4X37rzzznAlgOUQRc7MKnbpWw90zM7HLvoUFR87e5HKXXfdVT61Gf1egDly5EjR27lzZ7gSwHKIImdmETt7gYpEsfPH7Sx26Z6dxe6+++4rbrzxxvKYYPS7AXpsfPOb3yx6e/fuLR+A0UYA8hdFzkwzdpp0otjpuJ1/NaaPXfqKTMUufZHK6upqcfjw4fB3Aw4ePFhceumlRe/ee+8tH2zRRgDyF0XOtIld3VsPJIqdPZVZFTt/3C79MOh07+7BBx8s9I92BU97j9HviOWjx5seE1dffXXxk5/8pOjpX0d6MEUbA8hfFDkz69ilr8hMY6e9u6oXqSh29qrMBx54oNDrD/TqTC3X5bVXGf2+yJfucz1+9BjQY0GPCX1K2M9+9rOipwfU3XffzQMDWFJR5Mw0YmdPZSp22vOqi130IhWLXfRUpr25XHt3Cp5eiHDbbbcVN998c3HNNdcUV111VfHTn/60uOKKK8p/3Rv9Hc/Ij370oy1++MMfhi6//PLWvv/977f2ve99b+5EP6f3gx/8YCD6/aPbL2W3d3S/iL//PN23uo91Xytquu/1GNBjQXt2l112WbF///6ipweaHjh67jv6HwFA3qLImXFi50NXFzupekWmRK/IrHpzuWL385//vAyeXrRyzz33lBPdoUOHSmtra+WxPaNXcRr969/orVjm9ttvL2niNJo0jd72ENFTqqlbb7114JZbbhnQxDwO7a2MI7quUfif3f9O0e8c3Tbib0N/29rt7e8Pz99n/r7UfWv3swKn+16PAT0WLIDaoevpgaYHmY7d6V9IelBG/0MAyFMUOdM2dha8NrHTU5ltYqe9O4td3VOZtndnsbv//vvLCc/+Za9JUC9S0KRoNPkZP4n62KXRqwufZ5N6FICUD4aJIrNdqmJmot8hFUXN87ehv23t9q4KnL/P/H2p+1b3se7ro0ePli3Tee3taY9R16ntenqw6YGmB5keOLpSPaj0wNMDN/qfA0A+osiZcWLX9DSmj13bF6nUPZWZ7t0pdvqXvSY9TX72r35NisbvGfhJ1E+uNuHaJCx+cvYOHDgwEE3wFoA0glFQRuHj1EZ0HaPwP7v/nfzv6m8LE91m4m/bKHD+fvL3n2f3r4Km76+PkNOrL/U0toKq61EIe/Zgs39V6UGlB41W6oeJ7qBRRTdaJLpzxhX9q2U7RE8djEvvH8Js6SD2soh+f4m2raKJxOgvDqSuvfbaAU02olfDiZ5SkiuvvLL8V7c/lqZjMnZ8TMd4dOzHjgft2bOnPO6ye/fuYteuXeVEdskllxT6EHv59re/XXzrW98q30v1jW98o/j6179efO1rXysuvvji4qKLLiq++tWvFl/5yleKL3/5ywMXXnhh6Etf+tLAF7/4xdIXvvCFoa/NBRdcEPr85z8/ss997nMDn/3sZ0t+Wcq2GVd0nSb6+aLf098Wnt1W4m/PiN3u/r7R/RXRfWl03xrd37rfv/vd75bHF/W40lys0CmeCuKRI0eK/wY0RPe0Sh78dwAAAABJRU5ErkJggg==;" vertex="1" parent="1">
          <mxGeometry x="550" y="310" width="443" height="421" as="geometry" />
        </mxCell>
        <mxCell id="Dyfe-6KV-RoQIKAsCmXW-2" value="" style="shape=image;verticalLabelPosition=bottom;labelBackgroundColor=default;verticalAlign=top;aspect=fixed;imageAspect=0;image=data:image/jpeg,iVBORw0KGgoAAAANSUhEUgAAAyQAAACnCAYAAADgxpjvAAAAAXNSR0IArs4c6QAAAARnQU1BAACxjwv8YQUAAAAJcEhZcwAADsMAAA7DAcdvqGQAADYUSURBVHhe7d17X9VG+y7w/T72H/v3Cnb7tFYUFBUUURQVj9Wq1YqAiKKiolg8FqsV67Ge2urzSK1nRaioeEAURBSs9rH75czmGpvlJGtWcmcR1uJw/fH9sEhmJZOZJGvuZCb5X//7//yP+r+jRhMREREREaUcAxIiIiIiIkobBiRERERERJQ2DEiIiIiIiChtGJAQEREREVHaDImAZGLeVPXX/3ujZs+fb51PRERERERD05AISMZOmKhOnv1J5eRPs84nIiIiIqKhiV22iIiIiIgobeICkg1bq1Tnq+fqy+XLVPP9O+rNX69Ue+cTNXvBgliaNesrVMvDP1Tvu27V2vZAbd+5Q306eoxrOdm5k/VdjY6udtXz7pVquteovi4udqUJWs702XN0Vy2Ht8sWunK9+7tXLfzqK9f0qu1b9XrNZUnyTEREREREqWUNSHrfdqsbjdd0EPJF1ng1b/FiNXVmoZ6/vmqj6n7zQpWtq1C506arpStXqGcv2tTmmurYMkZljlOtT+71BTRN6stly1ReQYEqLi9T1Tu2x9JIluPwG0Ny9dYVdfTkUde0m003VP3Rw7H/w6yLiIiIiIhSxxqQ6Ma/cUfE9LTjsarZVeuatq22Rt190Bz7v2JjpXr7vsd3zIdkOQ6/gKSyapO+o/OvjLH6f6wTaYsWLoylCbMuIiIiIiJKHWtAgm5atu5M43JzdWPf5vWfXbF0uDuBOyTmd03S5Tj8ApIx2RN1fpd9s1L/v2N3rXrY9iA2P+y6iIiIiIgodRKOITGnOcbnTNYN+ZUlq63zHfXHDqsHj1us80C6HEfQY3/PN5xXp34+rT/jrsee/fti88Kui4iIiIiIUidUQAIY4I6AwzbP8bHLVr51PkiW4wgKSIrXlOoxIpiPdM54F0eYdRERERERUeqEDkgqN2/SwQa6RuUXFqqZRXPVlppqte9AXSyNM6i9qaVRP61r8vQC/YQtPP0qzHIcQQHJqLGZqrunU98dabx7O25+mHUREREREVHqhA5IoGz9Ov1IYDxC98Xr5+rqzStqVVmJK43z2N/Olx8e+4snbq1YvcqVJmg5v11p0IGIFx7fay4HTpw5qeeZT/IySfJMRERERESpFReQEBERERERpQoDEiIiIiIiShsGJERERERElDYMSIiIiIiIKG0YkBARERERUdowICEiIiIiorRhQEJERERERGmTMCDZXbdXtXe26RcKLvzqK2saIiIiIiKi/rAGJHipIV4yuLF6s/p09Ji4+URERERERFGwBiSF8+bpgGTqzMK4eURERERERFGxBiSz58/XAUleQUHcPCIiIiIioqhYA5L5S5bogGRSXn7cPCIiIiIioqjEBSQZ47PVsVPHVUdXO8ePEBERERHRgHIFJFXbtuo7Iz3vXqnlxatcCYmIiIiIiKJmvUNy/PQJ9fzlU94hISIiIiKiAcUxJERERERElDbWgIRP2SIiIiIiolSwBiQzi+bqgITvISEiIiIiooFkDUiyJk5Sb9/36EHun43JjJtPREREREQUBWtAAt/u2anaO9t0YLJw6VfWNERERERERP2RMCAhIiIiIiIaaAxIiIiIiIgobRiQEBERERFR2jAgISIiIiKitGFAQkREREREacOAhAatiXlT9ftw8KJO2/xUG2z5ISIiIhoOBn1AUn/8R/XLf37Vn1se/qE2bK2KS0P+UlmGUa5r7ISJ6uTZn1RO/jTr/FRLVX64zxMREdFIwoBkBBiqAclIxTIkIiKikWTIByTHT59Qv11pcE27c7dR1f2w3zWtesd29bDtgep9162evWhTZ34965oPa9ZX6HUgTWtf2u07d6hPR49xpcH6O189V18uX6aa799Rb/56pdo7n6jZCxbo+cjP79cvqUNH6tXzl09VZ/czte9AnWsZ85csVpeuXdLz8P2W1mZVtq4iNr9o0UL17n2v+uncKfXi9XNVu2+3Ot9wXr3s6VA1u2tdy5LkWdrAzRifrbsljRqb/Nv5/db1r4yx6lbTTXXmlzOxaZ+PzVJN9xrV6Z9PxaZNnz1Hd41y2LpIBZUhfPJFhtrRV15tHY/Un/99re4/alGl69bG5kvLWZIfSb2jXuqPHlbdPZ16fTv71od90lunDEiIiIhoJBn0Acmu7/ao+mOH9eeGyxdVaUW5a74kIFm8fLl+43zxmlI1YUqeKpw3Tzc+ze+sr9qout+80I3a3GnT1dKVK3Tgsrmm2pUOjcPet93qRuM1HYR8kTVezVu8WE2dWajnIz9o5FZuqdINUAQuaMTOX7IktozV5eVqW22NbthOnl6gqqq3qHd/9+pGNuajoYzvrCwpUTU7v9WfKzZtUGs3VKrXf3bFAg5pnoPK0LG7bu8/611tnS8RtK6cqfm6MY7twf9Ii0AB5WimA78xG0FlCFgHArW1G9arvIIZqnbvLr28ooUL9XxpOTv88iOpd6wfwc6KkmI1rXCWutBwQe+X3oBEWl9EREREw8GQH9QuCUjQSHz1psva6HU87Xisana5G4Zo8N590OyahoBEN0r/uSPihfy0tt13TcP/uHNhTvNqavmYZ6ehjDsKM4vm6s9ZObmxBvG43FydTppnqSgCEonlxat0gx9l0vP2pSqYM8eaLuwgcrMMAXewTvTVh5mm8Y9bsTs00nJ2BAUkQfWOOycoY+f/7MlTrAEJERER0UgyIgKS7NzJ6nF7q24Qnv7ltNpSU62nOfPR8ERD0wYNZycdICBBFyHv1XMH8oOuROY0nZ+DH/OTOWGSqjv0vZ6O7l7IF5b54/Ejer7TlQif8wsLdT5Gjxuvsibl6M85+fmh8jwYoWsT8urXHckvAAgqQ0AQWrV9q+t7R386phrv3tafJeVsfjcoIPGr94zsCfq73mAP+WZAQkRERCPZkA9Ijp06HheQ4Mq4GZDAZ2My1ZKvl6u9+/fpsRbo4z8+50NQgr+2xqINGtAYQ2KbB5IACfPRKF649CvdyEVwdLv5pjp68qieH9xQnhYqz4ONHkvSt73oTmWOJ/HyCwCCyhB0QLLNE5Cc6gtI/rilP0vK2fxuUEDiV++JApKOrnYGJERERDSiDfmAZP+hA+rGneux/3HnAsGGNyAxYfA2usqsKiuJTcNVdqffvp/+BiTIH9b9TWlpbD6CJeQ5TECCedI8S43JnqiXPSpznHV+VH44Uq9an9xTM4rmqO7eF6qyapM1XaIAQFKGkLDL1j8PNEhlQAK4G7KnLyB2/kcQ1Z8uW+iCiDz5dUUkIiIiGuyGfEBSXF6mr7RjkDCeqrT12xrdyDQbghjMjkHPeFrSpLx8VV1boxuCzkB0qNy8SU/DU5nQOMWYAnTt8j4pKYo7JBjEja5FaFjjbgG6L2HdYQMSaZ6lUjGGBEEE6qtw7jz9Pwan97x71Zf3ori0fgFAUBkCBv3bBrXPXbRIz091QOIMav+6uFjlzZipn6SF/CUbkGBfRH78ur0RERERDXZDPiD5ZHSGboR2ve5QT5491FegvQ1BdNW6fvuabgxiEDUGP+NJR+ZyoGz9On1VHY1EPAnq6s0rrrsoEEVAgsABd3WedT3VY1sQQFy5cTl0QAKSPEsNdECCp2Hhkbd4BLM5Hd2ocMckY1y2/h/lh3x44RG4zneCyhAQoOLRuhj8j2AF6yivXBebLy1nSX4k9Y7ACXe0cFcI+yseSIC8e8tDCt9HPpZ+s9I6n4iIiGgoGPIBCdFQhbs7eIR0sgFgQ18AhPe62OYRERERDRUMSIhSBO+KQfexCVOmqKyJH54S1t7ZltQYENxtwdPUMKjfNp+IiIhoqGBAQpQieQUF+slgePoXug/ize4Y12RLS0RERDRSMCAhIiIiIqK0YUBCRERERERpw4CEiIiIiIjShgEJERERERGlDQOSYeZh24PQL9qzvUNjoKRyXUMZHgl89Kdj+t0yeNcIys2WLkhUy+mvk2d/Uhd//491Xn8ls88PBcN1uxIJu6+OtPIZyQbLeWy4SOexI/kt4O/FyDToA5L64z/qN1rjM15Ex7dS+0vmYEtlkCBdVyrrXbKuik0bdNm++euVar7fpBYvX+6av7Vmm35BZfebF/rFh3gRJ17IaaYJY8XqVfpll7Pmz1NjsieqzzOzXPPnLFyoLt/4XT+xC67fvqoyxn94saTJbzn4Ybf5z6V/x9JItysoP6n8gcmcMEm/bBOPVMa24wWVXy5b5voOBOXZVjZglo9ETn6+OvPrWdXal098X9qY6u8PZ3H5Gr2+ZMq9YmOlutH44WWygJeOzl+yOD5dwHERRtA+79Xf8knErGtT2HqXlmEUJOuSHstR1Kmt/MBbhlGcx0x++3wU2yU9twSJajnJsh07QXUhPY8FlXNUAcne779z7Vvw/OVTa1rTQJ03IKgMJfUu3a4w+3Oi40K6H6aqPcaAZJhJ5mBjQOK/LrwJHQcz3vo+o2iOOtG3DT3vXqm8ghmxNBurN6u1GyrVgiVL+hoCS9RP506pP//7Wqc3lyW1rbZGPXr6wDoPjwrGCxXPXTirlvXlbd7ixTrPzpvuTX7LwdvuTcg73mi/Zn1FLI1kuyT5SWVAcr7hvN5mvKMFj1r+7uB+fbI160uSZ0n5SEybVagOHalXZevX6R/zVAQkeOcNvn/3QXNS5Y5jdNd3e9RXK1focsQyUF7YFieN5LgIw29ftelP+fiJqt4lZRgVybokx3JUdSopw6jOYw6/fT6q7ZKcWySiWk6yvMeOpC4k5zFJOUcZkNx7dNe1n02fNdua1jRQ5w1JGUrqXbJdYfZnv+NCuh8yIPlHUEGc/uW0unTtkjr182nV+eq5etb1VNXs/NaVBleKkKaz+5mOJltam1XZuvgfl+od23XFoUKevWjTVwPCpGnreKQqt9grCttx8fJF/fmTLzLUjr4DAunxg3D/UYsqXbc27jvYVmzTl8uX6StbyHt75xM1e8ECPf+zMZnq8IkfVXdPp76VXdu3cyZzsDlBAnbuzpftupz2HahzpYmqDCXrAukBgKsPE/OmqlFjM63zJYLWhfxevXkl9j+6D2A/+77+oCudCS8uxA/w5ppq13T8IGMdKB+c1Lfv3KGX58xH+eBE42We/HHCw1UY538byXK8tvTlFfuRX1natkuSH/zAoBxxNQYvdOzoatf7gDddUPkE7fPIH46pTVu3xL4DrW33Vd0P+2P/S/Lslah8gvJswpUsWx1Ij+Xs3Mm6LFF++AFquteovi4udqXBum8131Srykr0Ntp+2MPkGTKyJ6h3f/eq6r6GoTNNelwE5Vmyr0ZZPpI0pkT1HnY5tjIESV1EUV9etmNZWqdh82MrwyjPY1i33z4v2a6g3zjpuSWq5UAU+4bk2Al7Pkx0HpOUM46ZoN8CSRo03HFF35zmJT1vBJWhpP0TVIbSepdsl/Q4xfREx0WY/ZAByT9w1af+2GH9uaGvQV9aUe6aj4AEJygEAmjo45YubpWtLFkdS7O6vFxfYZk9f76aPL1AVVVv0Sdr7GROGtzuwsm5eE2pmjAlTxXOm6d3Xme+JM3Z8+f6DqSTru84sIMhCMFn3GrDjo+3diMSrd27S29D0cKFru+g0hFx41Y8ghC80RtR99SZH6567a7bq7ped+gfQUTQCHjeve+NO9iC4MSCMqs/elgVzJmjb+0jP7iK5qSJqgwl64KgenegDPB9s77DCloXukDs3b/PNQ1XFnA71pzmGD1uvD6hoXyKFn2s0/VVG3V3CZzIcNVi6coVOmjzBi2AOsSJ0zsdEMihXC80XNCfEaxWbt5kTeu3HBOOndYn99TBw+4TminRdknygx8Y7Juod+y/5ZXr9Ikd+5WTRlI+Qfs8GjzYB7Es5zuAq0OXr3/8sQhThpCofMLUKST6IZccy6Myx+k8YBm4rY4rWsXlZfoigLmsukPf6ws0+GxrnIXNM+RMzdfHGerNmSY5LqR5Br99NaryCZMfSFTvYZcDtjKU1EVU9WVKdCxL6jRsfhKVYZhjMOg8FrTPS7Yr6DdOem6JajlR7RuSYyfs+RD7ve08JilnyW+BJA0a7j1vX+pAAwEL6hzb58wHybZLyjCoTiGoDKX1LtkuaZvE77iQ5gek7bH+GvKD2hGQPG5vdU1DUIBo1pzm1dTS6IoCEdCgoYxGv5nOFJQGO+m9hy36M25vIkDBDxcqHpGo0+jGjopbbOZ3G/+4pc78csY1DQEJflScOyJe2On3GDvlpLx8fZCYB5sETixPOx67rgg8ef5I/2CZ6bySKcNk15UITjj9DUj84CoCll+1bas+CHEiQNB79ORR/SNrpsVJAyc7pMfJBLdVzfnY7ppd7rrBSQ4nAHMaJPoBdvKDKz4IcHE7F1cfcWIpWbsmLn3QD7kDJ2HsO3kzZsbN89suaX7wA4OTq1nvuHtmnkAl5SPZ59E3HhcAEBR/MjpDB/7Ij7OcsGUIiconTJ1Coh9yyXZhnADymJM/LTbNa8mKr/XxhCvk+N/WOAubZ0D3HpzbPh/7oe++9LiQ5Nnht69GVT5h8gOJ6j3scsBbhiCpiyjqyyE5loPqNGx+bGUY5XksaJ+XbpeN9zcu6NySSDLLiWrfCDp2kjkf2s5j0nKW/BZI0mBcEdaD9tGKkmLVePe2XueEKVNiaSTnjWSOLzDrVFqGknoP2i5pOUt+C5LdnwfKsAhILl39zTXt2z071ZNnD2P/Y+AOIkUUPLo8YYAQou0fjx+JpcHtdwQ2mIdlYmfCNGe+JM3MoiK9s2MHQB4Q5Tp9CbE+BCZIh0Z71fatse8BniCCHc+choAE3zMPSgcG9mGn/Ka01DUdtxTNg00CJxbsrOY0lFXdwY8n0KjKULKuwQS3fFHOuJOzvHiV+uN+s5pWOEudOHMy7scMP/7oR4r+0piPcnJ+hMfl5url2OCWtLkcSPQDjHXgO7hla07HVQtbEO73Q27CicpbLw6/7ZLmBz8wV299vMUMyBtuM+OzpHyk+zyuVt+4c12nReMLP2K4OIAfUcwPW4ZgK5+wdQq2H3LpduFqoV8DKisnV5cnrtg707w/QsnkGUE/ljulr1ydadLjIijPpkT7alTlA2HyA4mOi7DLsZWhpC6iqi+H37EsqdNk8mMrw6jOY5J9XrqvSn7jgs4tUS0nqn1Dcuwkcz60ncek5Rz0WyBN45U1KUf3KEGPE/wv2Xbp/hxUp9IylOw/Xt7tkpSz5LiAZPIzkIZFQIInipjT0NfwybNHsf+xk6Cxj4E7GG+ARvLt5ps6ojS/h4rGU0dwKwz9CLHjjs9xN6j90iBwQISMyPRaX8Xi9h1+uNCPF5XuLEMHJH3RrfM/oK8k7pKY0xCQYAyJOc2BoAc7EW5FmtNxq9E52KRwYvEeSDpIMK7oRFWGknUNNrgCgcFe5rR/X7qgD15zmhdOFM6dMJQB6kt6Jwd1mCiQwO3lH47Uu6bhdqpzd87ktxwHbkHjqgi62tnme5nbBZL86B8Yo88r4EqS8wMjKZ+w+zy6pTgBMX4YzJNxmDJMVD5h6xRsP+TS7UL+HjyOz58DXSaxHHQHdSDfgM94Sk7YPOPqIvKRXxg/EFtyXATl2ZRoX42qfCBMfvyOizDLSVSGkrqIsr5svMdyUJ2GzY9fGUZxHpPs80gn2Velv3Hgd26JYjlR7RvSYydMXYDtPAaScg76LZCmscF4XKfbvGTbpfuzpE7DlKHf/mNjbhcElbP0uHCEzc9AGRYBiffW3q8Xf1G/X/8QlWI6KsGMktFoRkPZdoJwYLA0vofBQLb5YEvT0Lfj7j90QO9AOCAwAOjnCz/r6NpJk7DLlmcAuF9AArgdafZZxvoQ5ZonGomgICHKMow6IMFVEHSbQNc42/woIL9mQInyQHeHA54BZF4Y+IaBbs7/uLKCE5SZJpFEP8CAEzX6wprT8DjNMFcWTejbjRM9bgXb5nt5t0uSH/zA2G7Bm1fBJOWTzD6P2/TYD83vhSlDv/IJU6eQ6Idcsl0fuwm5f0wcOAbQEDXdbLqhtxWfnfxL84wBkujOYHtyC0iOi6A8m/z21SjKB8Lkx6/epcsJKkNJXURVXzbeY1lSp2H2eb8yjOI8Jt3ng7YL/6M+w/7Gec8tUS0Hoto3JMdOmLqAROcxyf4j+S2QpPHCXQzcSTAfkiPZ9qAylNZp2DIEW7172bYrqJylx4WXJD9+0F0fAZtft30/wyIgwQ6GHQqDnzBgHOM1zJ0HwQFuraHSUBF4dB0K3dyZcAUHY0BwOxuVgrsaSOMMIJemwW01POPd2cExOAiRsxmlYxARolT01zMHtc9dtCiWBoICEtyax10I9C3Eth08ckgvxzzYJCRBQlRlGHVAMtBjSMB5xB664WEg/rFTx3X9OT/86HuJJ1BgUBzqELdJcULFd8z9EAPcUB640oOTgtPP1PaUsUQ/wLC6vFx3DcR3UbaVVZv0MWB7UpvfcgAnLlxtwUA67zzpdknyg+/p4/Soe5AiBgI7aSTlI9nn8Sx4HDvIM/YLNLrQldB8/KK0DP3KByR5RjliOuCW+vmGX/VnpHfSSLYLecH30XcZT97D1WecV7zdP0222/SSPONKH85bK0tKYnkH/Ng4aYKOCwiTZ799NarykeYnqN4ly5GUoaQuoqgv6bEsqVNJfiCoDKM8j5ls+7xkuyS/cZJzS1TLiWrfkBw7krqQnMck5Sz5LZCkQdci5A9liLEWt5pu6mMAA9OdNJJtl5ShpE4lZSipd8l2ScrZy3ZcSPITBpaFfOGvbX6QYRGQICrFDowxG+jbhx3LTIMdDNEkrtSgsLGjoZuXuTOhmxEG+OAEiuXghwY7g7kcSRr0zUWFYIfB/1u/rdE7KaJcJw2eOoJuZbiahZ0aBzcOOGe+A5XqF5AgSsdBgqdI4KBDox7bZx5sEpIgIaoyHIoBCazrC3TxvG6cFNHNAdvqzEN94nYq6gBXMtBtD4/aw8uIzGUAnuGOO2Q4eeCKBq5Y2O7CBf0A41F9mI/loOsIAkFbuqDlOCdjPJXHOy/MdgXlB8cn6h0nTvTNxdUvnEzNNBBUPpJ9Hk93Qx3hUaxYBk7wCJCd+Q5JGfqVjyMoz05fZi+zy4/0WMZtdZQlrvxh+3ClEoMgzTQm248QBOUZ51Fbns3jHfyOC4c0z377apTlI0kjqfeg5UjLUHJO6G99hTmWJXUqybOkDKM6j5kS7fNB2yX5jZOcW6JaDkSxb0iPnaC6kJzHIKicccwE/RZI0vx84ZzufoX1YP/HU6a87/iRbntQGUrqFILKUFLvku0CyXFqsh0X0v1QCg8HwD7htH/DGhYBCR6zZptHREREREQDC0MWcEfHNk+CAQkRERERESUFXdlwNwsD/23zJRiQEBERERFR2gz5gIQSw0BHP96XARERERERpRoDEiIiIiIiShsGJERERERElDYMSGhI+mrlCqu5Xy5K2vRZs5OG53gny7Z9RERERCMFA5Ik4GVTeNby7Pnz4+bhGdTO87nrj/8YN5/6xxaEmGyBhpQt0JCyBRpS2I+8bNveX0V96zLZ0qTDrL7tlRo7YWLSbOsmIiKi9Bv0AQka9XjDLD63PPwj6TdARgmNG7y4Jyd/mnU+4CU0fgFJKrcraF05+fnqzK9n9YuDEEjh5YXmfPh8bJY6UH9QtXU80i/RaW27r9/EbqZxAjGv/1z6d6g0gDfuI7jDS3/wwjFb8GFjCzSkbIGGlC3QkLIFJA68ZPLCb//WdeSUjaS+AG9hxX7oDUQck6dP1/AW2O7eF/qllkEvV4qKLdiQ8AYZYdjyQUREROnHgGSADNaAZPL0gjh4C6ht+oyioqRNnTkzabZAQ8oWaEjZAg0pW6AhZQtEJPB2WQQltoBk+uw5+o3M5y6ctQYj4AQkXjOK5sQtLypYvi3QkLIFGlK2/BAREVH6DYuAZM36Cj0Pr+tHA237zh3q09Fj9LyiRQvVu/e96qdzp/Sr8Wv37dav4seV55rdHx97O3/JYnXp2iXV2f1MX5VvaW1WZesqYvMBjTzzqj4aheZ8U1QBScb4bN1FbNTYTOt8CWddtqDDjy3QkLIFGlK2QEPKFmhI2QINKVugIeUNNMJAYGELSBCI+N0dAW8g4uVdpp/s3Mn6rmFHV7u+g9Z0r1F9XVwcm//JFxmx5doCDSlboCFl5peIiIgGj0EfkOz6bo+qP3ZYf264fFGVVpS75q+v2qi7nCB4yJ02XS3ta5Q+e9GmNtdU6/kISBA8rCwpUTU7v9Wf0R1o7YZK/VZJJ3BZXV6uttXW6EYeGuNV1VvUu797daBirg/8xpA4ggKSoO1y7K7b+0/+V1vnS2Bd3mBDwhZoSNkCDSlboCFlCzSkbIGGlDfICMMMMMIyAwyzzjtftuvg25zvZQYfqWQLNKRsgYaUWT5EREQ0eAz5Qe1POx7HveAPgcXdB836sxOQ4LX2M4vm6s9ZObmxoGJcbq7ru6amlkZV98P+uOlRBCRSUQQktmBDwhZoSNkCDSlboCFlCzSkbIGGlC3QkPIGGWHYAg0pW7CQCrZAQ8oWaEjZjg0iIiJKvyEdkCCYQGPdBnc/kMbpsoXP+YWFet7oceNV1qQc/dkZLJw5YZKqO/S9unO3UbV3PlHPXz7VXbd+PH4ktj5HKgOSKNiCDQlboCFlCzSkbIGGlC3QkLIFGlK2QEPKG2SEYQs0pGzBQirYAg0pW6AhZTs2iIiIKP2GdEAyPmeyDgz87h4EByQfnpT125UG1Xj3tlq49CsdcKBP/O3mm+royaOu5QEDkmC2QEPKFmhI2QINKVugIWULNKS8QUYYtkBDyhYspIIt0JCyBRpStmODiIiI0m/Id9nC3QxnLIaNJCDBOJK373vUN6Wlse99NiZTD3BPNiC50HBBnUjwONYwxmRP1HkclTnOOl/CFmxI2AINKVugIWULNKRsgYaULdCQsgUaUt4gIwxboCFlCxZSwRZoSNkCDSnbsUFERETpN+QDksrNm3QwsWN3rQ44ME5kS0212negTs+X3iG5/6hFd89CcILxJoeO1OvlJhuQ4AleGFxfOG+evtvyeWaWNV2QKMaQgC3gCGILNKRsgYaULdDwUzBnjjp26rh+ylpewYzYNuPdJnjqE572hOkVGyt1N7w9+/fF0pw9f06VrlurA4MVJcXqVtNN/ZAEPCDBSfPJ6Ay9X0Hrk3vqfMOv+jP2J2c+nmKGBytgOV8uW6afOIV6M4PcH/r2KSwbD1hwghHwBhlh2AINKVuwkAq2QEPKFmhIOfVAREREg8uQD0gA72Novn9HN0jxaN+rN6+oVWUlep40IEED88ad6+pZ11P1uL1VBzRXblx2BSTo1oXveOGxvU4axxdZ4/XL61696dJpkn3PSFQBCdiCDj+2QEPKFmhI2YIOm3WbNqhHTz+8PPGP+81xL/XDuCAEmXjwwYeXOT7QT55ynqwGP184pwNHLAPjhvBIaLyXxVwO7lKZ9e148LhFz8cjbU+ePamXj3d/dPd0qlvNN1Vx+RrXcrB823Kwj9mCDQlboCFlCxZSwRZoSNkCDSmzLoiIiGjwGBYBCcnZAo9EbIGGlC3QkLIFHybbdg0XtqDDjy3QkLIFC6lgCzSkbIGGlK28iYiIKP0YkIxgtiDElo5Sa8KUKbp7V2vbfdXz9qW+g+MEYgxI7MFGInhIhbd8iYiIaHBhQEI0BH2RNU6bUjAjaei2mKy8GTOShm6SyZqYlydiKzMiIiIanBiQEA1htkBDyhZoSNkCDSlboCFlCz4ctvIhIiKiwY8BCdEIZQs0pGyBhpQt0Ahiyz8RERENDwxIiEY4W8ARxBZoSNkCjkRs+SUiIqLhhQEJERERERGlzYgKSCQvNCQiIiIiotQZ9AFJ/fEf9Vuw8RkvIEz0gsHOV88DXz6Ix4DiDdqDpSuIJM+pIi3nKAStC29Uv9F4Tb3s6dDwgsr5Sxa70uh0mzaoh20fXozYfL9JLV7ufjGidDkOvMgQAevF3/9jnR8kKD9ba7bpF3jibe3dvS/U9dvX4l7mKJGTn69fuokXMSK/x0+fiEvjvHTRC2+v96b1E1VdSOz9/ru4/OJlkmYa73xH2O0yJar3z8dmqQP1B1Vbx6N/Xqx5X1XX1rjSQCqPHSIiouFoRAUkgw0DEvu68Eb8Xd/t0e/ewHsk0FDEG9DNN6gv/WalbkTu3LdbzSiao070NcrRaMwrmBFqOY7cadN1g/rug+akAhJJfjZWb1ZrN1SqBUuW9DXql6ifzp1Sf/73tU5vLisI8n/oSL0qW79OByW2gGRm0VwXrPPt+x61Zn1FXFo/UdWFBAKSe4/uuvI9fdZsVxpzHiS7XQ6/et9/6IAOwrDtuLu6dsN6vS4EaWY6BiRERET9M6QDkjHZE3VDyGZ91cZYuumz57jmebtsFS1aqN6979UNxBevn6vavobV+YbzujFSs7vWlRYNH+Sj9123bgxu37lDfTp6jCtN9Y7tupGDNHipHa5mO/OkecZV6EvXLqnO7mf6qnNLa7MqW/ex0SXN8+lfTuvlnPr5tA6AnnU9VTU7v43Nd0gbVRnjs3XjbNTYTOt8ibANuIzsCerd372uq9NoKF+9eSX2P+oA2/Z9/cHYNC/bcgDfvdV8U60qK1GXb/yeVECSTH7+lTFWN3A311Rb50vgboQtIPHa0rcO7Cf9qTfob1347T8ISO7cbYyb7sdvu4L21aB6x52hn//9i2vag8ct6siJo65pDEiIiIj6Z9AHJLg6W3/ssP7ccPmiKq0oj0sDkrsNicaQoHGP6StLSnRjHZ/RBQVXs1//2aUbLkiHgAHdbRAY4Mrq0pUrdMBhNijRVQWNzOI1pWrClDxVOG+eDhac+Sa/PK8uL1fb+hp9yCveoF5VvUU3BJ3uMtI8IyDBvMotVeqTLzLUrPnz1Ks3XX3fW+1an7Scd9ft/We97u+HIV2XI2dqvl5neeW62DQEXnv373OlQ0B2/fZV1zSTbTlQd+h7HbDhc7IBSdj8jB43XgezqFPUpS2NhCQgQb23PrmnDh5OHBxJ9bcu/PYfBCR4Mz0CjI6udl0P3jskpqDtCtpXg+p9T982tXe2qbyCAv0/7sbg7hDuCJnpwu7PRERE5DZsBrVHEZDgijW6geBzVk5uLP243Fyd7mnHY1Wzy33HBEEDuns4/6Phjwb/F1njXelswnbZamppVHU/7NefpXlGQPK4vdW1nJNnT+q7JuY0qSgCkrBwF+jewxbdpx//Y5uRh6ptW3XjDw1iBFpHTx7VDVTv9x3e5cCSFV+rJ88f6Sv/+D+ZgCRMftDAxp0tpEfD29u4DUsSkCBwRuCTN2OmdX4Y/a0Lv/1nxepVehmzFyxQK0qKVePd23p5E6ZMiUsLQdvlty5JvSOoR5CECwyAYCTZrmFERESUGAOSPmjco5GIz/mFhToNrmDjfQv4jEHEaODjsw3uSDjLys6drAMADMZFMIAuJZjmzDf55TlzwiR9BRddWNo7n+jloevWj8eP6PmSPGOe7rJ19bfYcuHbPTvVk2cPXdMGKzQq0f1nyj9XqeGzMZl6GzFIfHnxKvXH/WY1rXCWOnHmZMKAxLYcBHCY9uWyZbFpiQKSrd/W6PJ2oEHrzAuTHzTk0YUQV9sxH3XrbVD7rctLEpBge7BdtnlhRFUXUtiXEQTU7t1lnZ/sdknrHXeBcAcUg94L5sxRm7Zu0cf6slXfuNIRERFR/zAg6RPcuJ+mxudM1p8ldwbQSMPTk9CNBeNMMA4E3/em88sz+uXjCjEGEiPfCGpuN9/UV54xX5JnzENAgicjOcsFDD5+8uyRa9pghC4zaBBi+7zzcOX8u4Mf7hY5/n3pgrWbUKLloHsdygpjfRyxq+F9n52gDhAg4vsO7x2wMPkxoQGPQeDmtKB1mYICEnT3c7oQ2uZLRVUXYd1/1KLv6Hmn92e7pPXe9bpDHyvmd3++cE7darrpmkZERET9M2wCEvT1rtq+1TrP0Z+ABPNwNdvpKy6FgbVo6GDgrHdeojyjqwi+803px8YWghwENskEJOiP74wpgV8v/qJ+v55cly0MyseyR2WOs86PCgZEo4tcoic1IWC7ced67H9sH7pA4TGtZjq/5WAbnEa/42bTDT1AG5/RHcn7nUSk+fHCwwrOXfj40IOwggISjK/A3YAw2+IVVV1AmP0HgRnukOw7UBc3T7JdidYlqXfAE9C8d2fwgAoEkeY0KQSWOAdJunMSERGNJMMmIMFdADSM0LUKT9X5ZHRGXJr+BiSVmzfpQGHH7lqdDmM30CXLbDDhii0GoKNbzqS8fP00Inxn6sz4K8t+ecaVYXTPQuMOjSM85hXLSSYgQToEUsgDBr6joWUGO2H49cuPyg9924qHB2DAvvN4V0D9OWmcR82i+xm60xw7dVxf3TYbzZLleCXqshUkKD+oWzyJCQ9EmLtoke4uhHfi4Dth6wLLcrYF3aLON/yqP2M/MNOh4Y27FxgHYU4PI6q6cPjtP2fPn1Ol69bq8sEYEtyJwLrxAAkznXS7wuyrtnrHu00QzH9dXKy3BY/7RbdJ3C0y00nhbijyE3Qnl4iIaKQZNgEJBtKiixPef4AfffMRumj0Y5oXHtGJ+dLGPeDdD3i5HRpcuAqMq6rm3Q901cIL79BgwhODMBAdjStnvskvz2j04aozrgJjTAqCHgQwyQQkFy9f1I1f5AdjURBQOesJKxUBCfKIdXg52+5Y1xdcPXr64WV8uGrtfcmgdDmmZAMS8MsPngiFrkfowoer/t09nfqRsxifYC5DItGjo/FIWjOdE0DjyVjm9DCiqguH3/6D7lDoFoZlYL14UpftnTHS7epvQII7NLgogLtDOEZRd3hinnm3MQw8EAP56e+DDIiIiIabYROQkB0CkgsNF6zziCh1Gq40cPwJERGRBQOSYY4BCVH6odslntCFh1TY5hMREY1kDEiGOQYkRERERDSYMSAhIiIiIqK0YUBCRERERERpw4CEiIiIiIjShgEJERERERGlDQOSJCR6weJw9rDtgd5mqD/+ozVN1EZiORMRERGNNIM+IEHjF2+4xme8yHCg33Lc+ep54DrGTpioXzRovjBxIKRy26XrwgvkUhWQRFHOqd5/iIiIiCgcBiQekoAkVUZ6QBIFBiREREREg9uQD0jmL1msLl27pDq7n6k3f71SLa3NqmxdhSsNZOdO1lfbO7raVc+7V6rpXqP6urhYzxuTPTHWHclrfdXG2DKmz57jmmfrSvTJFxlqx+5a1dbxSP3539fq/qMWVbpurSvN8dMn1O/XL6lDR+rV85dPdd73HahzpQFpYzpjfLbu3jRqbKZ1vkQUAYlk2z8dPUbVHz2suns61YvXz9XOfbt1d7Cavu85aSTlHHUZEhEREVF6DPqAZNd3e1T9scP6c8Pli6q0otw1f3V5udpWW6MbrZOnF6iq6i3q3d+9OlBx0ozKHKdan9xTzfeb1JfLlqm8ggJVXF6mqndsdy0LJHdI/MY2VGzaoHrfdau1G9b3rWeGqt27S6ctWrgwlgaN6Xfve1XllirdQP9y+TKdZv6SJa5lBW27Y3fdXv39lSWrrfMlpOvyC0gk245pL3s61IqSYjWtcJZ+aePb9z2ugMThV85RlyERERERpcewHNTe1NKo6n7YH/u/YmOlbvRKxiL0NyBpvn9HnehrLJvTGv+4pc78cib2PxrTrW33XWnw//adO1zTpKIISKT8AhLJtuNuBvLr/J89eUrSAUmUZUhERERE6THkA5LMCZNU3aHv1Z27jaq984lu8KLr1o/Hj8TSoIsQ7pCY30ukvwHJqzddqmr7Vte0oz8dU413b8f+R2Ma3czMNMh/3cGPQdRg5ReQBG17RvYEa+CEOksmIBmqZUhEREREHw35gOS3Kw26wbtw6Ve6AYuxIrebb6qjJ4/G0qDLzoPHLa7vJRJJQLLN0yg/1dco/+NW7H80ppFvM41uTBt3dQarwIDEZ9sTBSQY15NMQDJUy5CIiIiIPhrSAQnGDqC7zzelpbFpn43J1AOczYDkY5et/Ni0RNo72+Ku8nv5NZQTdlv69Wzs/6gb0xiUj+5oGCtjmx8ljPnwbp9Dsu24G7Jn/77Y/wggk+2yFWUZfpE1Xq8Pf23ziYiIiGhgDPk7JHiSE7pnITj5V8ZY/dQlNHDNgMQZ1I6xJRj8jMHveMKWLfC4cuOybuiOy83VT636ZHRGXBq/hjKeymUb2D130aJYmqgb06kcQ4LA4dmLNlU4b54OJj7PzIrNk2y7M6gd5Z83Y6Z+Aha+k+6ABHfFsK6gu2NEREREFK0hH5DMLJqrbty5rp51PVWP21v1o18RVJgBCTiP/e18+eGxv3ji1orVq1xpYNb8eboLGNKggWo+9hcNYEzzwuNknTR49C0eZfu047EOjBAIlVeui82HoRyQ4A4C7nigexbWaTbgJduOoBFd6Lp7X6iu1x2qZletrjfziWeSco66DJEPrGPpNyut84mIiIhoYAz5gISGNtzZ6n3bnZJgyk9DX3Bzq+mmdR4RERERDRwGJJRSudOm6y5dE6ZMUVkTPzwhDeN20jl2A3dtXv/ZpR+MYJtPRERERAOHAQmlFF5KiS5x6PKFsSR42zrezG5LS0RERETDHwMSIiIiIiJKGwYkRERERESUNgxIiIiIiIgobRiQEBERERFR2jAgidjDtgex92bUH//RmoaIiIiIiD4Y9AEJGvV4mzc+48V4Q+VN2pdv/B4YkHS+eu67Panc9qFazqnC8iEiIiIaGAxIBggDkuGF5UNEREQ0MIZFQIJpaNx/uXyZar5/R73565Vq73yiZi9YEEuzZn2F/n7vu27V2vZAbd+5Q78l3FxO9Y7tussV0jx70abO/HrWNf/46RPqtysNrml37jaquh/2u6ZBooBkTPbEWJcur/VVG11ppY3gjPHZamLeVDVqbKZ1voRkXVGVT3buZHXy7E+qo6td9bx7pZruNaqvi4tDp4miTqVpGJAQERERDYxBH5Ds+m6Pqj92WH9uuHxRlVaUx6VB47D3bbe60XhNByF46/e8xYvV1JmFej4a+t1vXqiydRX6TeFLV67QDc/NNdWxZSxevly9fd+jiteUqglT8lThvHmqdt/u2HyIIiAxBd0hkWw77K7bqwOalSWrrfMlgtYVVfmMyhynWp/c6wscm9SXy5bpFyUWl5fpoCBMmqjqVJIGpHVBREREROEMi0HtaNSjQW7eETE97XisanbVuqZtq61Rdx80x/6v3FKl3x6OYMZMZ0p1QCIVRUASJKryqdhYqQOAnPxprnQmSZqo6lSShoiIiIgGzrAJSNBNy9tdB8bl5sa6RHm9/rMrlg5dhB63t6rnL5+q07+cVltqqvU0c1mDNSBJhajKp/7oYX33w0zjFZQmyjqVpCEiIiKigTNsAhI07m3zxudM1g1Vyd2Dz8ZkqiVfL1d79+/TYxI6u5/p7zvzj506HtfgxpiVkRCQQBTlg25PDx63uNJ4BaWJsk6laYiIiIhoYAz7gAQwwN3p/y+FgeLoNrSqrCQ2bf+hA+rGneux/3FHBo1XW0ByoeGCOnH6RNx0U3tnm6ravtU6LwwMlEf3Joy9sM0fCMmWz8fuWPmxaV6SNFHVqZckDRERERFFZ0QEJJWbN+lG5o7dtSq/sFDNLJqru+bsO1AXS4NBzVXVW9T02XPUpLx8VV1bo7/jDIzXacrL9JOYphXOUp98kaG2fluj3r3vtQYkNX3rwiBrDJJGF6DPM7Pi0ly5cVnfUUAXJDwh65PRGXFpJFIxhiSq8nEGrDe1NOqnok2eXqCfnmUGZpI0kdWpIA0RERERDZwREZBA2fp1uvsQGswvXj9XV29ecV0FR5ed67evqZc9Harn7UvdGF5R4n7MLAKGoyePqq7XHerJs4dqz/59CceQYJA0Hh+LAdMIFmxds2bNn6ca797Wj7VFGu9jf6VSEZBEWT4I0PBI386XHx7pi6dprVi9KnSaKOpUkoaIiIiIBs6wCEiIiIiIiGhoYkBCRERERERpw4CEiIiIiIjShgEJERERERGlDQMSIiIiIiJKGwYkRERERESUNgxIiIiIiIgobVwByaatW9Sf/32tWtseqNKKcldCIiIiIiKiqMXdIfl8bJaqP3ZYv2XcnE5ERERERBQ1a5ctvPEbb/7+dPSYuHlERERERERRsQYky4tXMSAhIiIiIqIBZw1Ilqz4Wgcko8eNj5tHREREREQUFWtAMjFvqnr7vkdtqalWn2dmxc0nIiIiIiKKgjUgga0129S7v3v1nZKFS7+ypiEiIiIiIuoPa0AyYUoe75AQEREREdGA8x1DkjEuO24eERERERFRVKwBCZ+yRUREREREqWANSPAeEnTZYkBCREREREQDKS4gGZU5Tr+p/cmzh67pREREREREUXMFJFXbtuo7I61tD9SqshJXQiIiIiIioqhZu2wRERERERGlAgMSIiIiIiJKGwYkRERERESUNgxIiIiIiIgobRiQEBERERFRmoxW/x9Zftx87ZpJxgAAAABJRU5ErkJggg==;" vertex="1" parent="1">
          <mxGeometry x="369.5" y="731" width="804" height="167" as="geometry" />
        </mxCell>
      </root>
    </mxGraphModel>
  </diagram>
</mxfile>
